<svg width="3021" height="1547" viewBox="0 0 3021 1547" fill="none" xmlns="http://www.w3.org/2000/svg">
<path d="M181.5 1346.5C179.2 1344.7 177.8 1341.9 179.6 1339.4L180 1338.9C181.6 1336.6 185.1 1336.9 187.5 1338.7C204.7 1352 219 1357.7 241.4 1357.7C272.7 1357.7 289 1342.4 289 1322.5C289 1265.6 185.4 1294.8 185.4 1230.3C185.4 1207.4 204.2 1187.8 242.1 1187.8C261.8 1187.8 276 1192.1 292.8 1202.7C295.5 1204.5 296.7 1206.8 295.5 1209.3L295.1 1210C293.7 1212.8 290.1 1212.5 287.6 1210.9C273.2 1201 259.2 1197.2 241.4 1197.2C210.1 1197.2 195.5 1212.1 195.5 1229.9C195.5 1285 299.3 1256.2 299.3 1322.5C299.3 1347.6 279.2 1367.1 241 1367.1C217.3 1367.2 201.1 1361.1 181.5 1346.5Z" fill="#343C3E"/>
<path d="M2724.5 1346.5C2722.2 1344.7 2720.8 1341.9 2722.6 1339.4L2723 1338.9C2724.6 1336.6 2728.2 1336.9 2730.5 1338.7C2747.7 1352 2762 1357.7 2784.4 1357.7C2815.7 1357.7 2832 1342.4 2832 1322.5C2832 1265.6 2728.4 1294.8 2728.4 1230.3C2728.4 1207.4 2747.2 1187.8 2785.1 1187.8C2804.8 1187.8 2819 1192.1 2835.8 1202.7C2838.5 1204.5 2839.7 1206.8 2838.5 1209.3L2838.1 1210C2836.7 1212.8 2833.1 1212.5 2830.6 1210.9C2816.2 1201 2802.2 1197.2 2784.4 1197.2C2753.1 1197.2 2738.6 1212.1 2738.6 1229.9C2738.6 1285 2842.4 1256.2 2842.4 1322.5C2842.4 1347.6 2822.3 1367.1 2784.1 1367.1C2760.3 1367.2 2744.1 1361.1 2724.5 1346.5Z" fill="#343C3E"/>
<path d="M477.8 1317.6V1095.8C477.8 1093 479.9 1091 482.6 1091H483C485.8 1091 488 1093 488 1095.8V1315.8C488 1345.3 494.2 1356.9 515 1356.9C519.1 1356.9 523.2 1356.4 527.8 1355.1C531.5 1354 534.6 1355.5 534.6 1358.3V1358.7C534.6 1361.7 532.5 1363.3 529.4 1364.2C524.4 1365.6 520.7 1366.3 514.6 1366.3C482.6 1366.3 477.8 1344.6 477.8 1317.6Z" fill="#343C3E"/>
<path d="M667.7 1277.4C667.7 1229.2 705.2 1187.8 757.3 1187.8C809.4 1187.8 846.9 1229.2 846.9 1277.4C846.9 1325.6 809.4 1367.1 757.3 1367.1C705.2 1367.1 667.7 1325.8 667.7 1277.4ZM757.3 1357.7C804.9 1357.7 836.6 1320.5 836.6 1277.4C836.6 1234.3 804.6 1197.2 757.3 1197.2C710 1197.2 677.9 1234 677.9 1277.4C677.9 1320.8 709.7 1357.7 757.3 1357.7Z" fill="#343C3E"/>
<path d="M1040.4 1367.5H1039.7C1036.1 1367.5 1034 1364.8 1032.2 1360.2L969.5 1195.4C967.5 1190.4 970 1187.4 973.6 1187.4H973.8C976.1 1187.4 977.9 1188.8 979 1191.7L1040 1352.9L1097.2 1194.7C1098.8 1190.1 1101.1 1187.4 1104.7 1187.4H1105.4C1108.4 1187.4 1111.1 1190.1 1112.7 1194.7L1170.1 1353L1231.1 1191.8C1232.2 1189 1233.8 1187.4 1236.3 1187.4H1236.5C1239.9 1187.4 1242.7 1190.2 1240.8 1195.2L1177.9 1360.1C1176.1 1364.7 1173.6 1367.4 1170.6 1367.4H1169.9C1166.3 1367.4 1164.2 1364.7 1162.4 1360.1L1105 1203.5L1047.9 1360.1C1046.1 1364.8 1043.4 1367.5 1040.4 1367.5Z" fill="#343C3E"/>
<path d="M1570.9 1367.5H1570.5C1567.8 1367.5 1565.7 1365.6 1565.7 1362.7V1192.3C1565.7 1189.5 1567.8 1187.5 1570.5 1187.5H1570.9C1573.7 1187.5 1575.9 1189.4 1575.9 1192.3V1227.7C1582.1 1207.4 1601.7 1187.9 1640.1 1187.9H1646.5C1649.5 1187.9 1652.2 1189.5 1652.2 1192.7V1192.9C1652.2 1196.1 1649.5 1197.7 1646.5 1197.7H1639.7C1598.5 1197.7 1575.9 1225.4 1575.9 1262.6V1362.8C1575.9 1365.5 1573.8 1367.5 1570.9 1367.5Z" fill="#343C3E"/>
<path d="M1761.8 1277.4C1761.8 1229.2 1799.3 1187.8 1851.4 1187.8C1903.5 1187.8 1941 1229.2 1941 1277.4C1941 1325.6 1903.5 1367.1 1851.4 1367.1C1799.3 1367.1 1761.8 1325.8 1761.8 1277.4ZM1851.4 1357.7C1899 1357.7 1930.7 1320.5 1930.7 1277.4C1930.7 1234.3 1898.7 1197.2 1851.4 1197.2C1804.1 1197.2 1772 1234 1772 1277.4C1772 1320.8 1803.8 1357.7 1851.4 1357.7Z" fill="#343C3E"/>
<path d="M2162.3 1187.8C2198 1187.8 2227.3 1207.5 2240.9 1238.1V1192.3C2240.9 1189.5 2243 1187.5 2245.7 1187.5H2246.1C2248.9 1187.5 2251.1 1189.4 2251.1 1192.3V1362.7C2251.1 1365.5 2249 1367.5 2246.1 1367.5H2245.7C2243 1367.5 2240.9 1365.6 2240.9 1362.7V1316.7C2227.4 1347.5 2198.1 1367.2 2162.3 1367.2C2114.5 1367.2 2074.9 1327.9 2074.9 1277.5C2074.9 1227.1 2114.5 1187.8 2162.3 1187.8ZM2162.3 1357.7C2206.6 1357.7 2240.9 1323.6 2240.9 1277.4C2240.9 1231.2 2206.6 1197.2 2162.3 1197.2C2118 1197.2 2085 1231.9 2085 1277.4C2085 1322.9 2119.7 1357.7 2162.3 1357.7Z" fill="#343C3E"/>
<path d="M2487.3 1187.8C2523 1187.8 2552.3 1207.5 2565.9 1238.1V1095.8C2565.9 1093 2568 1091 2570.7 1091H2571.1C2573.9 1091 2576.1 1093 2576.1 1095.8V1362.7C2576.1 1365.5 2574 1367.5 2571.1 1367.5H2570.7C2568 1367.5 2565.9 1365.6 2565.9 1362.7V1316.7C2552.4 1347.5 2523.1 1367.2 2487.3 1367.2C2439.5 1367.2 2399.9 1327.9 2399.9 1277.5C2399.9 1227.1 2439.5 1187.8 2487.3 1187.8ZM2487.3 1357.7C2531.6 1357.7 2565.9 1323.6 2565.9 1277.4C2565.9 1231.2 2531.6 1197.2 2487.3 1197.2C2443 1197.2 2410 1231.9 2410 1277.4C2410 1322.9 2444.6 1357.7 2487.3 1357.7Z" fill="#343C3E"/>
<path d="M1511 178.8C1436.9 178.8 1385 204.6 1356.9 227.3C1340.4 241.4 1334.8 250.9 1318.7 266.4C1298.6 285.9 1280.4 273.2 1248.9 301.7C1187.5 359.4 1154.4 442 1154.4 533.5C1154.4 730.5 1314 890.1 1511 890.1C1708 890.1 1867.6 730.4 1867.6 533.4C1867.6 336.4 1707.9 178.8 1511 178.8ZM1510.7 847.1C1337.4 847.1 1196.9 706.6 1196.9 533.3C1196.9 408.4 1272.4 321.8 1292.6 321.8C1306.3 321.8 1300.5 352 1355.9 382.3C1523.6 468.1 1778.8 421.4 1778.8 628.5C1778.8 754.3 1643.4 847.1 1510.7 847.1ZM1794 439.2C1738.6 418.1 1698.6 406.5 1649 397.5C1578.5 384.8 1505.3 383.5 1435.1 369C1406.7 362.2 1337.5 345.7 1346.1 301.9C1353.9 265.2 1417.4 220.7 1510.5 220.7C1645.6 220.7 1760.7 305.1 1805 424.8C1806 427.6 1806.1 430.7 1805.2 433.6C1803.7 438.1 1798.6 440.5 1794 439.2Z" fill="#343C3E"/>
<path d="M153.886 1306.42C153.947 1306.85 175.513 1281.98 177.538 1279.79C212.393 1242.17 252.576 1209.88 297.034 1184.32C329.288 1165.78 362.952 1148.67 398.451 1137.26C398.91 1137.12 420.671 1131.09 420.368 1133.05C420.037 1135.21 414.273 1140.68 413.558 1141.47C400.057 1156.58 385.618 1170.84 371.827 1185.68C336.092 1224.14 302.344 1264.38 267.562 1303.69C246.65 1327.33 225.834 1350.62 203.542 1372.91C183.826 1392.63 221.364 1362.52 224.098 1360.53C344.628 1272.87 490.287 1200.62 641.653 1193.11C656.418 1192.38 677.605 1189.26 692.299 1193.24C703.528 1196.27 674.838 1219.69 673.972 1220.48C635.317 1255.7 590.822 1284.91 548.409 1315.33C512.911 1340.8 476.776 1366.04 437.829 1386.04C434.914 1387.54 404.819 1403.17 420.368 1393.1C487.152 1349.85 552.703 1305.86 623.45 1269.02C692.063 1233.29 764.779 1198.64 840.276 1180.11C867.513 1173.43 895.962 1168.58 924.109 1170.95C954.507 1173.5 956.305 1197.78 956.305 1224.94C956.305 1260.11 947.644 1289.21 922.871 1315.21C893.699 1345.82 851.986 1369.67 809.938 1376.26C793.329 1378.86 767.466 1377.4 783.19 1354.59C797.989 1333.11 822.677 1317.44 843.62 1302.83C873.567 1281.93 904.478 1262.03 936.74 1244.87C993.162 1214.87 1076.88 1184.35 1124.34 1245.37C1145.36 1272.39 1146.54 1305.12 1162.61 1334.03C1177.83 1361.43 1230.09 1364.18 1255.97 1359.17C1313.45 1348.04 1335.24 1280.49 1344.14 1230.63" stroke="#FF2B2B" stroke-width="10" stroke-linecap="round"/>
<path d="M673.229 905.207C673.229 893.311 655.358 888.494 645.491 892.081C631.135 897.302 636.813 937.569 638.062 947.557C641.408 974.326 651.675 1047.11 604.132 1023.34" stroke="#FF2B2B" stroke-width="10" stroke-linecap="round"/>
<path d="M604.132 952.015H673.229" stroke="#FF2B2B" stroke-width="10" stroke-linecap="round"/>
<path d="M728.953 956.473C720.568 956.473 705.548 953.508 699.977 961.426C693.111 971.182 685.069 983.058 681.031 994.365C673.541 1015.34 689.241 1023.34 707.654 1023.34C715.434 1023.34 725.99 1008.91 729.944 1003.16C735.83 994.594 738.42 983.915 742.327 974.428C744.915 968.141 750.816 958.839 751.242 952.015C752.183 936.959 753.332 982.632 759.044 996.594C763.845 1008.33 767.078 1027.8 782.447 1027.8" stroke="#FF2B2B" stroke-width="10" stroke-linecap="round"/>
<path d="M833.713 949.786C850.825 949.786 797.082 945.175 782.571 954.244C764.147 965.759 804.413 977.419 810.928 980.991C826.402 989.477 842.704 991.052 852.535 1006.5C857.317 1014.01 848.142 1020.45 842.257 1023.22C823.992 1031.81 807.493 1033.33 795.821 1016.65" stroke="#FF2B2B" stroke-width="10" stroke-linecap="round"/>
<path d="M878.292 956.473H951.847" stroke="#FF2B2B" stroke-width="10" stroke-linecap="round"/>
<path d="M911.726 916.352C911.726 952.345 911.726 988.338 911.726 1024.33C911.726 1038.64 917.939 1051.79 930.796 1058.88C950.584 1069.8 965.966 1064.95 980.823 1050.09" stroke="#FF2B2B" stroke-width="10" stroke-linecap="round"/>
<path d="M1511.41 510.108C1511.41 530.451 1512.49 551.088 1509.68 571.277C1508.53 579.599 1507.95 587.563 1507.95 595.963C1507.95 598.582 1509.26 605.825 1506.8 607.056" stroke="#FF2B2B" stroke-width="10" stroke-linecap="round"/>
<path d="M1638.37 500.875C1642.49 502.938 1639.52 530.25 1639.52 535.499C1639.52 545.886 1639.52 556.274 1639.52 566.661C1639.52 570.958 1642 593.918 1637.21 595.514" stroke="#FF2B2B" stroke-width="10" stroke-linecap="round"/>
<path d="M774.914 340.968H1310.77" stroke="#FF2B2B" stroke-width="10" stroke-linecap="round"/>
<path d="M785.963 379.638H1139.52" stroke="#FF2B2B" stroke-width="10" stroke-linecap="round"/>
<path d="M957.217 550.892H1266.58" stroke="#FF2B2B" stroke-width="10" stroke-linecap="round"/>
<path d="M1023.51 672.427H1266.58" stroke="#FF2B2B" stroke-width="10" stroke-linecap="round"/>
<path d="M1106.37 777.389H1614.61" stroke="#FF2B2B" stroke-width="10" stroke-linecap="round"/>
<path d="M1216.86 48.179H1553.84" stroke="#FF2B2B" stroke-width="10" stroke-linecap="round"/>
<path d="M723.378 685.136C866.003 685.136 1008.63 685.136 1151.25 685.136C1203.91 685.136 1256.86 683.531 1309.48 685.565C1333.6 686.497 1358.79 686.998 1382.26 692.864" stroke="#FF2B2B" stroke-width="10" stroke-linecap="round"/>
<path d="M734.972 445.544H1446.02" stroke="#FF2B2B" stroke-width="10" stroke-linecap="round"/>
<path d="M920.897 186.219H1678.17" stroke="#FF2B2B" stroke-width="10" stroke-linecap="round"/>
</svg>
